<svg xmlns="http://www.w3.org/2000/svg" viewBox="0 0 1158 175" width="1158" height="175">
	<defs>
		<clipPath clipPathUnits="userSpaceOnUse" id="cp1">
			<path d="M-263 -508L1421 -508L1421 683L-263 683Z" />
		</clipPath>
		<linearGradient id="grd1" gradientUnits="userSpaceOnUse"  x1="-7.549" y1="-5.086" x2="60.118" y2="58.969">
			<stop offset="0" stop-color="#ff2e17"  />
			<stop offset="0.246" stop-color="#ff2e17"  />
			<stop offset="0.895" stop-color="#26242a"  />
			<stop offset="1" stop-color="#26242a"  />
		</linearGradient>
		<linearGradient id="grd2" gradientUnits="userSpaceOnUse"  x1="-7.548" y1="73.553" x2="60.121" y2="137.61">
			<stop offset="0" stop-color="#ff2e17"  />
			<stop offset="0.246" stop-color="#ff2e17"  />
			<stop offset="0.895" stop-color="#26242a"  />
			<stop offset="1" stop-color="#26242a"  />
		</linearGradient>
		<linearGradient id="grd3" gradientUnits="userSpaceOnUse"  x1="73.772" y1="-5.085" x2="141.437" y2="58.967">
			<stop offset="0" stop-color="#ff2e17"  />
			<stop offset="0.236" stop-color="#ff2e17"  />
			<stop offset="0.895" stop-color="#26242a"  />
			<stop offset="1" stop-color="#26242a"  />
		</linearGradient>
	</defs>
	<style>
		tspan { white-space:pre }
		.shp0 { fill: #2c2e35 } 
		.shp1 { fill: url(#grd1) } 
		.shp2 { fill: url(#grd2) } 
		.shp3 { fill: url(#grd3) } 
	</style>
	<g id="Page 1" clip-path="url(#cp1)">
		<path id="Path 1" fill-rule="evenodd" class="shp0" d="M225.48 142.92L236.72 173.77L232.86 173.77L232.81 173.64L229.46 164.44L216.69 164.44L213.29 173.77L209.39 173.77L209.49 173.51L220.75 142.92L225.48 142.92ZM223.05 146.7L217.88 161.19L228.22 161.19L223.05 146.7ZM259.91 170.43L275.23 170.43L275.23 173.77L256.25 173.77L256.25 142.92L259.91 142.92L259.91 170.43ZM300.18 170.43L315.5 170.43L315.5 173.77L296.52 173.77L296.52 142.92L300.18 142.92L300.18 170.43ZM378.68 142.92L389.92 173.77L386.06 173.77L386.01 173.64L382.67 164.44L369.89 164.44L366.49 173.77L362.59 173.77L362.68 173.51L373.97 142.92L378.68 142.92ZM376.26 146.7L371.08 161.19L381.43 161.19L376.26 146.7ZM431.61 162.54C431.84 163.35 431.95 164.17 431.95 164.99C431.95 166.18 431.7 167.34 431.21 168.39C430.71 169.46 430.04 170.39 429.2 171.18C428.37 171.98 427.39 172.6 426.31 173.07C425.21 173.54 424.07 173.77 422.9 173.77L409.46 173.77L409.46 142.92L421.5 142.92C422.83 142.92 424.04 143.11 425.11 143.5C426.18 143.88 427.09 144.42 427.84 145.08C428.59 145.75 429.17 146.53 429.56 147.41C429.95 148.29 430.14 149.25 430.14 150.24C430.14 151.73 429.76 153.14 429.02 154.4C428.34 155.54 427.3 156.52 425.93 157.32C426.92 157.63 427.78 158.02 428.49 158.49C429.34 159.04 429.99 159.64 430.5 160.32C431.01 160.99 431.38 161.74 431.61 162.54ZM426.75 150.69C426.75 149.42 426.32 148.37 425.47 147.52C424.63 146.69 423.23 146.26 421.32 146.26L413.11 146.26L413.11 155.73L420.75 155.73C421.63 155.73 422.45 155.59 423.19 155.31C423.93 155.05 424.56 154.69 425.09 154.23C425.61 153.79 426.01 153.23 426.31 152.63C426.6 152.02 426.75 151.36 426.75 150.69ZM413.11 170.43L421.54 170.43C422.35 170.43 423.16 170.32 423.95 170.09C424.76 169.85 425.48 169.5 426.1 169.05C426.75 168.59 427.27 168.03 427.66 167.34C428.05 166.65 428.25 165.82 428.25 164.85C428.25 164.07 428.07 163.32 427.72 162.62C427.38 161.92 426.85 161.28 426.17 160.74C425.48 160.2 424.64 159.77 423.68 159.47C422.7 159.14 421.58 158.98 420.35 158.98L413.11 158.98L413.11 170.43ZM480.16 151.89C480.76 153.85 481.06 156.04 481.06 158.38C481.06 160.74 480.76 162.94 480.16 164.88C479.55 166.86 478.64 168.58 477.46 170.01C476.27 171.42 474.81 172.55 473.1 173.34C471.39 174.16 469.4 174.56 467.19 174.56C465 174.56 463.02 174.16 461.28 173.34C459.57 172.55 458.1 171.42 456.93 170.01C455.76 168.59 454.86 166.86 454.24 164.88C453.64 162.93 453.34 160.74 453.34 158.38C453.34 156.04 453.64 153.85 454.24 151.89C454.86 149.91 455.75 148.2 456.93 146.78C458.11 145.34 459.57 144.21 461.28 143.42C463 142.62 464.99 142.21 467.19 142.21C469.4 142.21 471.39 142.62 473.1 143.42C474.79 144.21 476.26 145.34 477.46 146.78C478.64 148.2 479.56 149.92 480.16 151.89ZM471.19 170.42C472.43 169.82 473.51 168.98 474.42 167.9C475.34 166.79 476.08 165.44 476.61 163.84C477.14 162.24 477.41 160.41 477.41 158.38C477.41 156.37 477.14 154.53 476.61 152.93C476.08 151.34 475.34 149.98 474.42 148.88C473.51 147.79 472.43 146.94 471.19 146.35C469.95 145.77 468.61 145.47 467.19 145.47C465.76 145.47 464.41 145.77 463.17 146.35C461.94 146.94 460.85 147.79 459.95 148.88C459.02 149.98 458.3 151.34 457.77 152.93C457.26 154.53 456.99 156.37 456.99 158.38C456.99 160.41 457.26 162.24 457.77 163.84C458.3 165.44 459.02 166.8 459.95 167.9C460.85 168.98 461.93 169.82 463.17 170.42C464.39 171.01 465.75 171.31 467.19 171.31C468.61 171.31 469.96 171.01 471.19 170.42ZM521.78 142.92L525.43 142.92L525.43 163.49C525.43 165.29 525.07 166.87 524.38 168.27C523.69 169.64 522.77 170.82 521.65 171.77C520.52 172.71 519.25 173.44 517.88 173.91C516.5 174.4 515.1 174.65 513.71 174.65C512.36 174.65 511.02 174.42 509.69 173.94C508.36 173.45 507.15 172.74 506.09 171.82C505.01 170.86 504.13 169.68 503.46 168.28C502.8 166.89 502.45 165.25 502.45 163.4L502.45 142.92L506.11 142.92L506.11 163.62C506.11 164.83 506.34 165.92 506.77 166.89C507.22 167.86 507.8 168.68 508.5 169.34C509.22 169.99 510.04 170.5 510.93 170.85C512.8 171.6 514.68 171.54 516.59 170.9C517.55 170.57 518.44 170.09 519.21 169.43C519.98 168.8 520.6 167.99 521.07 167.03C521.54 166.09 521.78 164.97 521.78 163.71L521.78 142.92ZM546.77 142.92L570.59 142.92L570.59 146.26L560.51 146.26L560.51 173.77L556.85 173.77L556.85 146.26L546.77 146.26L546.77 142.92ZM618.16 170.43L635.98 170.43L635.98 173.77L614.5 173.77L614.5 142.92L635.22 142.92L635.22 146.26L618.16 146.26L618.16 156.16L634.22 156.16L634.22 159.52L618.16 159.52L618.16 170.43ZM677.17 142.92L680.83 142.92L680.83 173.77L676.16 173.77L676.1 173.67L660.98 148L660.98 173.77L657.33 173.77L657.33 142.92L661.99 142.92L662.05 143.01L677.17 168.7L677.17 142.92ZM702.16 142.92L725.98 142.92L725.98 146.26L715.9 146.26L715.9 173.77L712.25 173.77L712.25 146.26L702.16 146.26L702.16 142.92ZM750.98 170.43L768.8 170.43L768.8 173.77L747.32 173.77L747.32 142.92L768.05 142.92L768.05 146.26L750.98 146.26L750.98 156.16L767.04 156.16L767.04 159.52L750.98 159.52L750.98 170.43ZM812.74 173.48L812.92 173.77L808.95 173.77L808.88 173.67C808.57 173.18 808.37 172.57 808.3 171.88C808.22 171.18 808.19 170.61 808.19 170.14L808.19 165.3C808.19 164.73 808.1 164.18 807.89 163.62C807.71 163.09 807.4 162.61 806.97 162.16C806.55 161.72 806.02 161.37 805.32 161.11C804.65 160.83 803.8 160.7 802.8 160.7L793.81 160.7L793.81 173.77L790.15 173.77L790.15 142.92L802.8 142.92C804.32 142.92 805.67 143.19 806.84 143.71C808.01 144.22 809 144.92 809.79 145.75C810.58 146.58 811.19 147.55 811.6 148.62C812 149.67 812.2 150.74 812.2 151.79C812.2 153.31 811.82 154.77 811.1 156.14C810.43 157.39 809.47 158.42 808.22 159.21C808.86 159.42 809.36 159.69 809.79 160.04C810.32 160.47 810.73 160.98 811.03 161.53C811.34 162.08 811.53 162.69 811.64 163.37C811.75 164.03 811.8 164.69 811.8 165.35L811.8 169.96C811.8 170.62 811.89 171.26 812.06 171.85C812.23 172.46 812.47 173.01 812.74 173.48ZM793.81 157.44L802.8 157.44C803.58 157.44 804.29 157.3 804.99 157C805.68 156.7 806.29 156.3 806.82 155.79C807.34 155.27 807.76 154.66 808.08 153.97C808.39 153.28 808.54 152.53 808.54 151.75C808.54 150.96 808.4 150.22 808.12 149.56C807.83 148.9 807.44 148.31 806.93 147.83C806.43 147.36 805.81 146.98 805.1 146.69C804.39 146.41 803.62 146.26 802.8 146.26L793.81 146.26L793.81 157.44ZM833.98 142.92L857.8 142.92L857.8 146.26L847.71 146.26L847.71 173.77L844.06 173.77L844.06 146.26L833.98 146.26L833.98 142.92ZM889.69 142.92L900.92 173.77L897.07 173.77L897.02 173.64L893.67 164.44L880.88 164.44L877.49 173.77L873.59 173.77L873.69 173.51L884.96 142.92L889.69 142.92ZM887.26 146.7L882.09 161.19L892.43 161.19L887.26 146.7ZM922.09 142.92L925.75 142.92L925.75 173.77L922.09 173.77L922.09 142.92ZM968.61 142.92L972.27 142.92L972.27 173.77L967.59 173.77L967.54 173.67L952.42 148L952.42 173.77L948.76 173.77L948.76 142.92L953.43 142.92L953.49 143.01L968.61 168.7L968.61 142.92ZM1017.44 142.92L1022 142.92L1022 173.77L1018.34 173.77L1018.34 149.7L1009.54 173.77L1006.3 173.77L1006.26 173.65L997.3 149.68L997.3 173.77L993.66 173.77L993.66 142.92L998.17 142.92L998.22 143.05L1007.71 168.52L1017.44 142.92ZM1047.04 170.43L1064.87 170.43L1064.87 173.77L1043.39 173.77L1043.39 142.92L1064.13 142.92L1064.13 146.26L1047.04 146.26L1047.04 156.16L1063.11 156.16L1063.11 159.52L1047.04 159.52L1047.04 170.43ZM1106.06 142.92L1109.72 142.92L1109.72 173.77L1105.04 173.77L1104.99 173.67L1089.86 148L1089.86 173.77L1086.21 173.77L1086.21 142.92L1090.88 142.92L1090.94 143.01L1106.06 168.7L1106.06 142.92ZM1154.87 142.92L1154.87 146.26L1144.79 146.26L1144.79 173.77L1141.13 173.77L1141.13 146.26L1131.06 146.26L1131.06 142.92L1154.87 142.92ZM266.6 22.53L240.52 88.5C239.18 91.97 236.97 94.96 234.14 97.09C231.29 99.4 227.46 100.72 223.28 100.72C219.19 100.72 215.42 99.45 212.4 97.08C209.42 94.89 207.2 91.84 205.94 88.21L180.08 22.53L198.97 22.53L222.35 82.17C222.72 83.15 223.07 83.15 223.28 83.15C223.61 83.15 223.88 82.84 224.08 82.49L224.22 82.06L247.68 22.53L266.6 22.53ZM271.62 22.53L289.18 22.53L289.18 100.72L271.62 100.72L271.62 22.53ZM385.95 22.53L403.51 22.53L403.51 100.72L385.95 100.72L385.95 22.53Z" />
		<path id="Path 2" fill-rule="evenodd" class="shp0" d="M503.26 76.97C503.26 90.07 492.61 100.72 479.52 100.72L438.38 100.72C425.29 100.72 414.65 90.07 414.65 76.97L414.65 46.27C414.65 33.13 425.29 22.44 438.38 22.44L479.52 22.44C492.61 22.44 503.26 33.13 503.26 46.27L503.26 76.97ZM485.79 46.27C485.79 42.88 482.92 40 479.52 40L438.38 40C434.99 40 432.12 42.88 432.12 46.27L432.12 76.97C432.12 80.38 434.93 83.15 438.38 83.15L479.52 83.15C482.98 83.15 485.79 80.38 485.79 76.97L485.79 46.27ZM579.6 22.53L597.16 22.53L597.16 87.67C597.16 90.49 596.35 93.2 594.82 95.5C592.97 98.05 590.72 99.69 588.14 100.47C586.69 100.88 585.46 101.05 584.23 101.05C582.61 101.05 581.04 100.75 579.55 100.19C576.93 99.27 574.6 97.55 572.93 95.3L534.54 47.99L534.54 100.72L516.98 100.72L516.98 35.92C516.98 32.93 517.81 30.19 519.39 27.98C520.89 25.73 523.23 24.05 525.98 23.2C528.21 22.4 531.76 22.33 534.58 23.4C537.25 24.34 539.58 26.14 541.22 28.5L579.6 75.63L579.6 22.53ZM800 22.53L773.96 88.82C772.81 92.19 770.57 95.25 767.62 97.42C764.59 99.8 760.82 101.06 756.71 101.06C752.82 101.06 749.28 99.94 746.18 97.71L745.75 97.38C743.31 95.35 741.34 92.8 739.73 89.59L738.97 88.07L738.97 87.53L724.28 49.36L708.82 89.59C707.21 92.8 705.24 95.35 702.81 97.38L702.38 97.71C699.29 99.94 695.73 101.06 691.84 101.06C687.73 101.06 683.97 99.8 680.94 97.42C677.99 95.25 675.75 92.19 674.49 88.55L648.64 22.53L667.46 22.53L690.91 82.53C691.27 83.49 691.61 83.49 691.84 83.49C691.92 83.58 692.28 83.27 692.9 82.11L712.59 30.99C714.4 25.91 719.01 22.53 724.27 22.53C729.56 22.53 734.15 25.91 736.03 31.14L755.67 82.11C756.27 83.27 756.64 83.58 756.65 83.58C756.95 83.49 757.29 83.49 757.62 82.62L781.1 22.53L800 22.53ZM868.52 100.72L827.39 100.72C814.29 100.72 803.64 90.07 803.64 76.97L803.64 46.27C803.64 33.13 814.29 22.44 827.39 22.44L868.52 22.44C881.61 22.44 892.26 33.13 892.26 46.27L892.26 76.97C892.26 90.07 881.61 100.72 868.52 100.72ZM874.79 46.27C874.79 42.88 871.92 40 868.52 40L827.39 40C823.98 40 821.12 42.88 821.12 46.27L821.12 76.97C821.12 80.38 823.94 83.15 827.39 83.15L868.52 83.15C871.97 83.15 874.79 80.38 874.79 76.97L874.79 46.27ZM973.39 74.26L993.35 100.72L971.35 100.72L952.83 76.18L925.02 76.18L925.02 100.62L907.46 100.62L907.46 22.44L965.29 22.44C975.26 22.44 983.38 30.6 983.38 40.62L983.38 58.11C983.38 65.17 979.3 71.3 973.39 74.26ZM925.02 58.62L965.29 58.62C965.67 58.62 965.9 58.36 965.9 58.11L965.9 40.62C965.9 40.26 965.65 40 965.29 40L925.02 40L925.02 58.62ZM1056.68 59.63C1056.22 60.32 1055.77 60.98 1055.32 61.62C1055.8 62.31 1056.29 63.03 1056.79 63.8L1082.48 100.72L1061.17 100.72L1042.32 73.61C1041.85 72.92 1040.6 71.09 1039.95 70.45L1012.23 70.45L1012.23 100.72L994.75 100.72L994.75 22.53L1012.23 22.53L1012.23 52.88L1039.91 52.88C1040.36 52.46 1041.13 51.4 1042.23 49.74L1061.17 22.53L1082.61 22.53L1056.68 59.63ZM1157.18 74.35L1157.18 81.84C1157.18 87.14 1155.09 92 1151.3 95.49C1148.01 98.79 1143.08 100.72 1137.61 100.72L1083.62 100.72L1083.62 83.15L1137.61 83.15C1139.62 83.15 1139.62 82.27 1139.62 81.84L1139.62 76.09C1139.59 74.35 1138.19 74.19 1138.19 74.19L1103.33 66.44C1099.35 65.61 1095.8 64.43 1092.92 62.96C1090.25 61.62 1088.06 59.88 1086.46 57.87C1084.29 55.24 1083.09 51.87 1083.09 48.28L1083.09 42C1082.94 34.81 1086.42 30.21 1088.51 28.12C1091.71 24.64 1096.65 22.44 1101.52 22.44L1154.49 22.44L1154.49 40L1101.52 40C1101.49 40.01 1101.24 40.13 1101.12 40.26C1100.74 40.64 1100.63 41.12 1100.65 41.83L1100.65 47.22C1101.42 47.69 1103.17 48.44 1107.14 49.3L1140.17 56.8C1148.34 58.37 1152.55 62.64 1154.61 65.91C1157 69.8 1157.18 73.36 1157.18 74.35ZM368.08 95.49C364.8 98.8 359.86 100.72 354.41 100.72L300.39 100.72L300.39 83.15L354.41 83.15C356.41 83.15 356.41 82.27 356.41 81.84L356.41 76.09C356.37 74.35 354.97 74.2 354.97 74.2L320.12 66.44C316.13 65.61 312.58 64.44 309.71 62.96C307.05 61.62 304.84 59.88 303.25 57.87C301.07 55.24 299.87 51.87 299.87 48.28L299.87 42C299.73 34.81 303.21 30.21 305.29 28.13C308.49 24.64 313.43 22.44 318.31 22.44L371.27 22.44L371.27 40L318.31 40C318.28 40.01 318.02 40.13 317.9 40.26C317.52 40.64 317.42 41.12 317.43 41.83L317.43 47.23C318.2 47.69 319.96 48.44 323.93 49.3L356.96 56.81C365.12 58.38 369.34 62.64 371.39 65.92C373.78 69.8 373.96 73.36 373.96 74.35L373.96 81.84C373.96 87.15 371.87 92 368.08 95.49Z" />
		<path id="Path 3" class="shp1" d="M25.47 0.79L4.77 0.79C2.61 0.79 0.84 2.43 0.62 4.54C0.6 4.68 0.6 4.82 0.6 4.97L0.6 25.67L0.6 66.36L0.62 66.34C0.7 68.16 2.19 69.6 4.01 69.6C4.79 69.6 5.5 69.33 6.07 68.9C6.07 68.9 6.07 68.91 6.07 68.91C6.22 68.86 24.45 52.31 24.45 52.31C25.08 51.7 25.47 50.83 25.47 49.88L25.47 49.84L25.47 25.67L49.65 25.67L49.69 25.67C50.65 25.67 51.51 25.28 52.12 24.64L52.13 24.64C52.13 24.64 68.67 6.41 68.72 6.27L68.7 6.27C69.14 5.69 69.41 4.98 69.41 4.21C69.41 2.38 67.96 0.9 66.15 0.81L66.16 0.79L25.47 0.79Z" />
		<path id="Path 4" class="shp2" d="M25.47 79.43L4.77 79.43C2.61 79.43 0.84 81.09 0.62 83.18C0.6 83.33 0.6 83.45 0.6 83.6L0.6 104.31L0.6 145L0.62 144.98C0.7 146.79 2.19 148.24 4.01 148.24C4.79 148.24 5.5 147.98 6.07 147.54C6.07 147.54 6.07 147.55 6.07 147.55C6.22 147.49 24.45 130.96 24.45 130.96C25.08 130.33 25.47 129.46 25.47 128.51L25.47 128.48L25.47 104.31L49.65 104.31L49.69 104.31C50.65 104.31 51.51 103.91 52.12 103.29L52.13 103.29C52.13 103.29 68.67 85.05 68.72 84.91L68.7 84.9C69.14 84.33 69.41 83.62 69.41 82.84C69.41 81.02 67.96 79.53 66.15 79.44L66.16 79.43L25.47 79.43Z" />
		<path id="Path 5" class="shp3" d="M106.8 0.79L86.09 0.79C83.94 0.79 82.15 2.43 81.94 4.54C81.92 4.68 81.91 4.82 81.91 4.97L81.92 25.67L81.91 66.36L81.94 66.34C82.02 68.16 83.51 69.6 85.34 69.6C86.11 69.6 86.82 69.33 87.39 68.9L87.4 68.91C87.54 68.86 105.77 52.31 105.77 52.31C106.4 51.7 106.8 50.83 106.8 49.88L106.8 49.84L106.8 25.67L130.97 25.67L131 25.67C131.96 25.67 132.83 25.28 133.44 24.64L133.45 24.64C133.45 24.64 149.98 6.41 150.04 6.27L150.02 6.27C150.46 5.69 150.73 4.98 150.73 4.21C150.73 2.38 149.28 0.9 147.47 0.81L147.49 0.79L106.8 0.79Z" />
	</g>
</svg>